<?xml version="1.0" encoding="utf-8"?>
<!-- Designed by Vexels.com - 2019 All Rights Reserved - https://vexels.com/terms-and-conditions/  -->
<svg version="1.1" id="Layer_1" xmlns="http://www.w3.org/2000/svg" xmlns:xlink="http://www.w3.org/1999/xlink" x="0px" y="0px"
	 viewBox="0 0 1200 1200" enable-background="new 0 0 1200 1200" xml:space="preserve">
<g>
	<g>
		<path fill="#091335" d="M344.092,582.129c7.953-20.91,24.38-26.305,44.1-25.814c6.697,0.167,9.3-2.27,9.37-9.119
			c0.814-79.954,0.587-159.709-11.889-239.151c-10.189-64.874-16.918-130.291-25.173-195.469c-0.194-1.53-0.292-3.073-0.419-4.612
			c-1.944-23.572,2.972-30.901,26.089-35.483c38.155-7.564,76.757-12.39,115.44-16.156c53.167-5.176,106.514-7.47,159.934-5.773
			c53.371,1.695,106.536,6.183,159.424,13.701c6.098,0.867,12.337,1.268,18.242,2.872c16.058,4.362,22.096,12.089,21.399,28.876
			c-0.921,22.204-4.641,44.145-7.705,66.14c-8.783,63.055-21.03,127.944-27.356,192.208c-6.454,65.558-0.678,128.639,2.643,194.032
			c0.305,6.011,2.558,8.611,8.743,9.327c15.923,1.843,21.453,6.768,24.753,22.789c2.968,14.409,4.874,29.037,7.42,44.619
			c5.361-3.424,6.417-7.731,6.284-12.388c-0.955-33.305-2.132-66.604-2.996-99.91c-0.776-29.886-2.735-59.772-0.793-89.677
			c0.482-7.417,0.153-12.704-9.569-14.273c-8.313-1.341-12.749-8.591-12.31-17.306c0.438-8.688,7.036-10.74,14.265-11.498
			c18.755-1.967,37.505-4.001,55.815,2.911c3.51,1.325,6.757,2.911,9.549,5.484c4.381,4.039,7.358,9.053,5.588,14.786
			c-1.671,5.409-7.614,4.471-11.984,4.896c-20.387,1.983-20.539,2.514-22.977,22.843c-5.616,46.824-1.486,93.631-0.555,140.453
			c0.387,19.441,0.713,38.91,0.123,58.337c-0.543,17.884-10.403,29.323-27.613,33.726c-6.567,1.68-13.292,2.74-19.932,4.143
			c-2.399,0.507-5.111,0.635-7.087,1.881c-30.495,19.238-66.803,27.01-102.058,31.914c-18.269,2.541-36.692,4.414-55.076,5.912
			c-10.228,0.834-33.013-3.034-40.777,3.972c-16.143,14.566,8.008,41.338-9.778,55.913c-5.498,4.506-2.919,23.086,2.841,27.677
			c4.385,3.495,4.081,7.953,4.189,12.545c0.558,23.746,1.31,47.491,1.528,71.241c0.064,6.998,2.504,9.578,9.35,8.426
			c38.463-6.472,76.253-1.51,113.766,7.091c6.55,1.502,12.648,1.825,18.981-0.755c5.541-2.258,11.453-2.508,17.318-1.238
			c8.22,1.78,14.224,6.645,12.851,15.34c-2.56,16.208,7.715,28.893,10.396,43.573c0.407,2.228,2.053,3.99,4.076,4.797
			c21.99,8.772,41.712,23.017,65.541,27.317c6.054,1.092,12.286,1.286,18.277,2.613c8.663,1.919,13.302,7.728,12.976,16.666
			c-0.608,16.666,0.341,33.114,3.346,49.597c1.864,10.226-1.617,20.181-6.451,29.382c-2.01,3.825-5.129,6.307-9.658,5.85
			c-4.261-0.43-6.535-3.527-7.346-7.339c-0.88-4.138-2.552-6.462-7.185-6.844c-4.503-0.372-5.916,1.984-7.108,5.497
			c-1.297,3.822-3.911,6.522-8.223,6.124c-4.686-0.433-7.991-3.372-9.77-7.557c-8.302-19.533-0.01-36.456,6.857-54.777
			c0.298-0.794,0.6-1.643,0.42-2.472c-0.316-1.459-1.917-2.189-3.32-2.702c-79.129-28.929-161.209-37.482-245.089-34.465
			c-9.063,0.329-14.842,4.454-17.915,13.151c-7.447,21.074-12.168,43.044-14.349,65.279c-2.723,27.757,12.253,59.011-4.935,84.029
			c-2.19,3.187-4.928,5.515-9.319,4.464c-4.269-1.021-6.401-3.891-6.374-7.964c0.043-6.443-4.053-7.224-9.051-7.912
			c-4.893-0.673-6.721,1.488-7.502,5.82c-0.771,4.275-3.489,6.278-7.914,6.028c-5.177-0.293-8.84-2.562-10.335-7.679
			c-6.353-21.737,2.155-36.145,7.104-56.627c7.013-29.026,7.572-59.539,11.97-89.017c1.239-8.302-0.536-11.208-9.495-12.153
			c-77.973-8.224-151.887,3.781-227.798,20.028c-5.004,1.071-10.351,2.332-13.797,6.116c-6.822,7.49,7.315,38.832,4.035,51.754
			c-0.926,3.647-1.756,7.516-5.069,9.574c-4.558,2.833-9.989,4.452-11.614-2.828c-1.88-8.426-7.991-5.936-13.132-6.316
			c-5.249-0.388-7.129,2.378-6.918,7.357c0.115,2.719-1.241,4.961-4.205,5.168c-4.09,0.284-7.338-1.767-9.084-5.276
			c-4.483-9.013-6.374-18.465-5.217-28.692c1.252-11.071,7.307-20.852,7.464-32.316c0.08-5.845-1.044-11.634-0.289-17.495
			c1.257-9.754,5.471-15.885,15.12-15.468c28,1.209,55.515-9.45,80.94-19.959c13.274-5.487,64.479-18.477,62.655-35.471
			c-0.523-4.871,0.023-9.863,0.169-14.799c0.362-12.282,7.06-20.069,18.74-16.808c24.158,6.744,46.83-3.227,70.265-3.397
			c11.448-0.083,22.784,0.666,34.093,1.585c6.859,0.558,10.397-0.975,9.841-7.977c-1.837-23.114,0.79-46.24-0.416-69.337
			c-0.239-4.587-0.517-8.633,4.228-11.137c4.588-2.421,4.801-7.162,5.012-11.309c1.077-21.255,1.713-42.532,2.692-63.792
			c0.31-6.723-2.542-9.543-9.195-9.524c-4.295,0.012-8.594-0.793-12.888-1.266c-5.55-0.612-9.302,0.811-11.067,6.978
			c-2.04,7.127-8.62,9.509-15.047,10.74c-33.443,6.409-66.117,16.175-97.883,27.76c-16.132,5.883-31.827,13.675-48.444,18.9
			c-18.942,5.956-27.985-7.564-30.606-22.011c-0.624-3.438,1.776-5.786,4.093-7.87c9.167-8.246,20.278-11.869,32.284-11.931
			c7.022-0.036,11.182,3.669,7.822,11.576c-2.193,5.159-0.133,5.411,4.626,4.909c43.339-4.571,83.292-22.941,125.839-30.684
			c3.55-0.646,8.394-1.465,8.166-6.015c-0.255-5.088-5.439-4.022-8.857-4.307c-51.015-4.258-100.586-15.395-148.883-32.043
			c-10.713-3.693-20.375-9.983-32.577-7.39c-3.483,0.74-6.757-1.667-9.238-5.031c-17.141-23.241-15.441-49.621-14.995-76.596
			c0.886-53.588,7.638-107.26-0.579-160.817c-1.932-12.595-2.906-13.385-15.909-14.303c-2.463-0.174-4.941-0.129-7.402-0.317
			c-4.898-0.374-10.6,0.016-12.741-5.53c-2.106-5.454,2.163-9.435,5.445-12.917c8.503-9.022,19.625-12.722,31.644-13.28
			c10.78-0.5,21.605,0.004,32.41-0.029c8.351-0.025,15.638,1.781,17.768,11.22c1.606,7.12-5.296,18.009-13.768,19.582
			c-7.651,1.42-7.993,5.081-7.769,11.446c1.629,46.319-2.356,92.513-3.515,138.775C343.93,567.018,344.092,574.575,344.092,582.129z
			"/>
	</g>
</g>
</svg>
